<svg width="365" height="142" viewBox="0 0 365 142" fill="none" xmlns="http://www.w3.org/2000/svg">
<path d="M301.289 141.12C299.369 141.12 298.409 140.416 298.409 139.008C298.409 137.6 299.241 136.832 300.905 136.704L309.545 135.36C312.105 134.976 313.833 134.336 314.729 133.44C315.625 132.416 316.073 130.56 316.073 127.872V12.672C316.073 10.88 315.689 9.6 314.921 8.832C314.153 8.064 312.553 7.67999 310.121 7.67999C305.385 7.67999 300.713 9.72799 296.105 13.824C291.497 17.92 288.489 24.512 287.081 33.6L286.121 39.936C285.865 41.6 284.969 42.432 283.433 42.432C281.513 42.432 280.681 41.344 280.937 39.168L282.665 4.416C282.921 1.472 284.073 0 286.121 0C287.017 0 287.849 0.256001 288.617 0.768002C289.385 1.152 290.665 1.59999 292.457 2.112C294.377 2.624 297.385 2.88 301.481 2.88H344.297C348.393 2.88 351.337 2.624 353.129 2.112C355.049 1.59999 356.393 1.152 357.161 0.768002C358.057 0.256001 358.889 0 359.657 0C361.705 0 362.857 1.472 363.113 4.416L364.841 39.168C365.097 41.344 364.265 42.432 362.345 42.432C360.809 42.432 359.913 41.6 359.657 39.936L358.697 33.6C357.417 24.512 354.473 17.92 349.865 13.824C345.257 9.72799 340.521 7.67999 335.657 7.67999C333.225 7.67999 331.625 8.064 330.857 8.832C330.089 9.6 329.705 10.88 329.705 12.672V127.872C329.705 130.56 330.153 132.416 331.049 133.44C332.073 134.336 333.801 134.976 336.233 135.36L344.873 136.704C346.537 136.832 347.369 137.6 347.369 139.008C347.369 140.416 346.409 141.12 344.489 141.12H301.289Z" fill="black"/>
<path d="M196.02 141.12C194.1 141.12 193.14 140.416 193.14 139.008C193.14 137.856 193.972 137.088 195.636 136.704L200.052 135.936C202.74 135.424 204.468 134.72 205.236 133.824C206.132 132.928 206.58 131.136 206.58 128.448V15.5519C206.58 12.8639 206.132 11.0719 205.236 10.1759C204.468 9.27988 202.74 8.57589 200.052 8.06388L195.636 7.29588C193.972 6.91188 193.14 6.14388 193.14 4.99188C193.14 3.58388 194.1 2.87988 196.02 2.87988H234.996C241.396 2.87988 247.092 4.22388 252.084 6.91188C257.076 9.59988 260.98 13.2479 263.796 17.8559C266.74 22.4639 268.212 27.7119 268.212 33.5999C268.212 39.3599 266.484 44.7359 263.028 49.7279C259.7 54.5919 254.836 58.6879 248.436 62.0159C247.668 62.3999 247.284 62.9119 247.284 63.5519C247.284 64.1919 247.732 64.6399 248.628 64.8959C257.332 67.8399 264.052 72.5759 268.788 79.1039C273.524 85.5039 275.892 93.1199 275.892 101.952C275.892 109.504 274.164 116.288 270.708 122.304C267.252 128.192 262.452 132.8 256.308 136.128C250.292 139.456 243.444 141.12 235.764 141.12H196.02ZM230.388 62.2079C237.172 62.2079 242.804 59.5839 247.284 54.3359C251.892 48.9599 254.196 42.3039 254.196 34.3679C254.196 26.4319 252.02 20.0319 247.668 15.1679C243.316 10.1759 237.556 7.67988 230.388 7.67988C223.604 7.67988 220.212 10.2399 220.212 15.3599V51.6479C220.212 55.3599 220.98 58.0479 222.516 59.7119C224.18 61.3759 226.804 62.2079 230.388 62.2079ZM233.268 136.32C241.588 136.32 248.372 133.184 253.62 126.912C258.868 120.512 261.492 112 261.492 101.376C261.492 90.7519 258.804 82.3679 253.428 76.2239C248.18 70.0799 241.076 67.0079 232.116 67.0079C224.18 67.0079 220.212 70.1439 220.212 76.4159V123.072C220.212 131.904 224.564 136.32 233.268 136.32Z" fill="black"/>
<path d="M2.88 141.12C0.96 141.12 0 140.416 0 139.008C0 137.856 0.832 137.088 2.496 136.704L6.912 135.936C9.6 135.424 11.328 134.72 12.096 133.824C12.992 132.928 13.44 131.136 13.44 128.448V15.5519C13.44 12.8639 12.992 11.0719 12.096 10.1759C11.328 9.27988 9.6 8.57589 6.912 8.06388L2.496 7.29588C0.832 6.91188 0 6.14388 0 4.99188C0 3.58388 0.96 2.87988 2.88 2.87988H37.632C39.552 2.87988 40.512 3.58388 40.512 4.99188C40.512 6.14388 39.68 6.91188 38.016 7.29588L33.6 8.06388C30.912 8.57589 29.12 9.27988 28.224 10.1759C27.456 11.0719 27.072 12.8639 27.072 15.5519V128.448C27.072 131.136 27.456 132.928 28.224 133.824C29.12 134.72 30.912 135.424 33.6 135.936L38.016 136.704C39.68 137.088 40.512 137.856 40.512 139.008C40.512 140.416 39.552 141.12 37.632 141.12H2.88Z" fill="black"/>
<rect x="40.5122" y="53.8853" width="8.47972" height="34.598" fill="black"/>
<rect width="8.47972" height="34.598" transform="matrix(-1 0 0 1 193.14 53.8853)" fill="black"/>
<rect x="48.9902" y="88.4829" width="8.47972" height="21.8368" fill="black"/>
<rect width="8.47972" height="21.8368" transform="matrix(-1 0 0 1 184.662 88.4829)" fill="black"/>
<rect x="57.4702" y="53.8853" width="8.47972" height="21.8368" transform="rotate(-180 57.4702 53.8853)" fill="black"/>
<rect width="8.47972" height="21.8368" transform="matrix(1 -9.065e-08 -8.43105e-08 -1 176.182 53.8853)" fill="black"/>
<rect x="48.9902" y="53.8853" width="8.47972" height="34.598" fill="black"/>
<rect width="8.47972" height="34.598" transform="matrix(-1 0 0 1 184.662 53.8853)" fill="black"/>
<rect x="57.4722" y="110.32" width="8.47972" height="16.2702" fill="black"/>
<rect width="8.47972" height="16.2702" transform="matrix(-1 0 0 1 176.18 110.32)" fill="black"/>
<rect x="65.9507" y="32.0483" width="8.47972" height="16.2702" transform="rotate(-180 65.9507 32.0483)" fill="black"/>
<rect width="8.47972" height="16.2702" transform="matrix(1 -9.065e-08 -8.43105e-08 -1 167.702 32.0483)" fill="black"/>
<rect x="57.4722" y="88.4829" width="8.47972" height="21.8368" fill="black"/>
<rect width="8.47972" height="21.8368" transform="matrix(-1 0 0 1 176.18 88.4829)" fill="black"/>
<rect x="65.9507" y="53.8853" width="8.47972" height="21.8368" transform="rotate(-180 65.9507 53.8853)" fill="black"/>
<rect width="8.47972" height="21.8368" transform="matrix(1 -9.065e-08 -8.43105e-08 -1 167.702 53.8853)" fill="black"/>
<rect x="57.4722" y="53.8853" width="8.47972" height="34.598" fill="black"/>
<rect width="8.47972" height="34.598" transform="matrix(-1 0 0 1 176.18 53.8853)" fill="black"/>
<rect x="65.9497" y="110.32" width="8.47972" height="16.2702" fill="black"/>
<rect width="8.47972" height="16.2702" transform="matrix(-1 0 0 1 167.703 110.32)" fill="black"/>
<rect x="74.4302" y="32.0483" width="8.47972" height="16.2702" transform="rotate(-180 74.4302 32.0483)" fill="black"/>
<rect width="8.47972" height="16.2702" transform="matrix(1 -9.065e-08 -8.43105e-08 -1 159.222 32.0483)" fill="black"/>
<rect x="65.9497" y="88.4829" width="8.47972" height="21.8368" fill="black"/>
<rect width="8.47972" height="21.8368" transform="matrix(-1 0 0 1 167.703 88.4829)" fill="black"/>
<rect x="74.4302" y="53.8853" width="8.47972" height="21.8368" transform="rotate(-180 74.4302 53.8853)" fill="black"/>
<rect width="8.47972" height="21.8368" transform="matrix(1 -9.065e-08 -8.43105e-08 -1 159.222 53.8853)" fill="black"/>
<rect x="74.4292" y="126.59" width="8.47972" height="9.41973" fill="black"/>
<rect width="8.47972" height="9.41973" transform="matrix(-1 0 0 1 159.223 126.59)" fill="black"/>
<rect x="82.9097" y="15.7778" width="8.47972" height="9.41973" transform="rotate(-180 82.9097 15.7778)" fill="black"/>
<rect width="8.47972" height="9.41973" transform="matrix(1 -9.065e-08 -8.43105e-08 -1 150.743 15.7778)" fill="black"/>
<rect x="74.4292" y="110.32" width="8.47972" height="16.2702" fill="black"/>
<rect width="8.47972" height="16.2702" transform="matrix(-1 0 0 1 159.223 110.32)" fill="black"/>
<rect x="82.9097" y="32.0483" width="8.47972" height="16.2702" transform="rotate(-180 82.9097 32.0483)" fill="black"/>
<rect width="8.47972" height="16.2702" transform="matrix(1 -9.065e-08 -8.43105e-08 -1 150.743 32.0483)" fill="black"/>
<rect x="82.9097" y="126.59" width="8.47972" height="9.41973" fill="black"/>
<rect width="8.47972" height="9.41973" transform="matrix(-1 0 0 1 150.743 126.59)" fill="black"/>
<rect x="91.3892" y="15.7778" width="8.47972" height="9.41973" transform="rotate(-180 91.3892 15.7778)" fill="black"/>
<rect width="8.47972" height="9.41973" transform="matrix(1 -9.065e-08 -8.43105e-08 -1 142.263 15.7778)" fill="black"/>
<rect x="91.3892" y="136.01" width="8.47972" height="5.30258" fill="black"/>
<rect width="8.47972" height="5.30258" transform="matrix(-1 0 0 1 142.263 136.01)" fill="black"/>
<rect x="99.8687" y="6.3584" width="8.47972" height="5.30258" transform="rotate(-180 99.8687 6.3584)" fill="black"/>
<rect width="8.47972" height="5.30258" transform="matrix(1 -9.065e-08 -8.43105e-08 -1 133.784 6.3584)" fill="black"/>
<rect x="91.3892" y="126.59" width="8.47972" height="9.41973" fill="black"/>
<rect width="8.47972" height="9.41973" transform="matrix(-1 0 0 1 142.263 126.59)" fill="black"/>
<rect x="99.8687" y="15.7778" width="8.47972" height="9.41973" transform="rotate(-180 99.8687 15.7778)" fill="black"/>
<rect width="8.47972" height="9.41973" transform="matrix(1 -9.065e-08 -8.43105e-08 -1 133.784 15.7778)" fill="black"/>
<rect x="99.8682" y="136.01" width="8.47972" height="5.30258" fill="black"/>
<rect width="8.47972" height="5.30258" transform="matrix(-1 0 0 1 133.784 136.01)" fill="black"/>
<rect x="108.348" y="6.3584" width="8.47972" height="5.30258" transform="rotate(-180 108.348 6.3584)" fill="black"/>
<rect width="8.47972" height="5.30258" transform="matrix(1 -9.065e-08 -8.43105e-08 -1 125.304 6.3584)" fill="black"/>
<rect x="108.348" y="136.01" width="8.47972" height="5.30258" fill="black"/>
<rect width="8.47972" height="5.30258" transform="matrix(-1 0 0 1 125.304 136.01)" fill="black"/>
<rect x="116.828" y="6.3584" width="8.47972" height="5.30258" transform="rotate(-180 116.828 6.3584)" fill="black"/>
<rect width="8.47972" height="5.30258" transform="matrix(1 -9.065e-08 -8.43105e-08 -1 116.825 6.3584)" fill="black"/>
</svg>
