<svg width="184" height="184" viewBox="0 0 184 184" fill="none" xmlns="http://www.w3.org/2000/svg">
<rect width="184" height="184" fill="#9EE68A"/>
<path fill-rule="evenodd" clip-rule="evenodd" d="M91.9989 48.9925L80.7487 48.9924L80.7489 55.2419H75.1233L69.4989 55.2417L69.4972 66.0362H63.8715L63.8723 80.5234H58.2466V103.477L63.871 103.476V117.964H69.4967L69.499 128.758L80.7484 128.758L80.7483 135.007L86.3737 135.007H91.9988L92 138.525H97.6245L97.6243 135.007H103.25H108.876L108.876 128.758H120.126L120.128 117.964H125.753L125.752 103.477H114.5L108.876 103.476V117.964H103.25V128.758H97.6257H91.9988H86.374V117.964H80.7484V103.476H75.124L75.1233 80.5234H80.7489V66.036H86.3744V55.2417H91.9989H97.6256H103.25V66.036H108.876V80.5234H114.501H125.752L125.753 66.0362H120.127L120.127 55.2419H108.876L108.876 48.9924L97.6245 48.9924L97.6246 45.4746H91.9989V48.9925Z" fill="black"/>
</svg>
